<?xml version="1.0" encoding="utf-8"?><!DOCTYPE svg PUBLIC "-//W3C//DTD SVG 1.1//EN" "http://www.w3.org/Graphics/SVG/1.1/DTD/svg11.dtd"><svg width="186" height="186" viewBox="0 0 186 186" xmlns="http://www.w3.org/2000/svg" xmlns:xlink="http://www.w3.org/1999/xlink"><svg width="92.93" height="92.93" viewBox="-4 -4 92.93 92.93" id="facebook-icon" xmlns="http://www.w3.org/2000/svg"><path fill="#5490CC" d="M42.466 82.932C20.153 82.932 2 64.779 2 42.466S20.153 2 42.466 2s40.466 18.153 40.466 40.466-18.153 40.466-40.466 40.466z"/><path fill="#FFF" d="M42.466 4c21.21 0 38.466 17.256 38.466 38.466S63.676 80.932 42.466 80.932 4 63.676 4 42.466 21.256 4 42.466 4m0-4C19.013 0 0 19.013 0 42.466s19.013 42.466 42.466 42.466 42.466-19.013 42.466-42.466S65.919 0 42.466 0z"/><g><path fill="#FFF" d="M46.117 66.049V44.534h7.222l1.081-8.385h-8.303v-5.354c0-2.428.675-4.082 4.155-4.082l4.44-.002v-7.499c-.769-.103-3.403-.331-6.47-.331-6.402 0-10.784 3.907-10.784 11.083v6.184h-7.241v8.385h7.241v21.515h8.659"/></g></svg><svg width="92.93" height="92.93" viewBox="-4 -4 92.93 92.93" id="mail-icon" x="92.93" xmlns="http://www.w3.org/2000/svg"><path fill="#5490CC" d="M42.466 82.932C20.153 82.932 2 64.779 2 42.466S20.153 2 42.466 2s40.466 18.153 40.466 40.466-18.153 40.466-40.466 40.466z"/><path fill="#FFF" d="M42.466 4c21.21 0 38.466 17.256 38.466 38.466S63.676 80.932 42.466 80.932 4 63.676 4 42.466 21.256 4 42.466 4m0-4C19.013 0 0 19.013 0 42.466s19.013 42.466 42.466 42.466 42.466-19.013 42.466-42.466S65.919 0 42.466 0z"/><g><path fill="#5490CC" stroke="#FFF" stroke-width="4" stroke-miterlimit="10" d="M62.274 59.688H22.61a2.842 2.842 0 0 1-2.833-2.833V28.199a2.841 2.841 0 0 1 2.833-2.833h39.664a2.842 2.842 0 0 1 2.834 2.833v28.655a2.816 2.816 0 0 1-2.834 2.834z"/><path fill="#FFF" d="M22.61 59.688a2.816 2.816 0 0 1-2.833-2.833V28.159c0-1.579 1.255-1.862 2.833-1.862 1.579 0 2.833.323 2.833 1.862v31.529H22.61z"/><path fill="#5490CC" d="M22.61 26.702c2.024 0 2.429.607 2.429 1.457v31.124H22.61a2.436 2.436 0 0 1-2.428-2.428V28.159c.001-.891.405-1.457 2.428-1.457zm0-.405c-1.578 0-2.833.323-2.833 1.862v28.695a2.815 2.815 0 0 0 2.833 2.833h2.833V28.159c0-1.579-1.254-1.862-2.833-1.862z"/><path fill="#FFF" d="M62.274 59.688h-2.833v-31.61c0-1.579 1.255-1.781 2.833-1.781 1.579 0 2.834.202 2.834 1.781v28.817c0 1.538-1.254 2.793-2.834 2.793z"/><path fill="#5490CC" d="M62.274 26.702c1.821 0 2.429.364 2.429 1.376v28.817a2.436 2.436 0 0 1-2.429 2.428h-2.428V28.078c.001-1.053.607-1.376 2.428-1.376zm0-.405c-1.578 0-2.833.202-2.833 1.781v31.65h2.833a2.816 2.816 0 0 0 2.834-2.833V28.078c0-1.579-1.254-1.781-2.834-1.781z"/><path fill="#FFF" d="M42.402 46.047l-21.41-15.542c-1.255-.931-1.619-2.712-.688-3.967.931-1.254 2.752-1.538 4.048-.606l18.091 13.153L60.657 25.77c1.254-.931 3.035-.647 3.966.647.932 1.255.647 3.036-.647 3.966L42.402 46.047z"/><path fill="#5490CC" d="M62.274 25.608c.77 0 1.498.364 1.983 1.012a2.486 2.486 0 0 1-.526 3.4L42.402 45.562l-21.168-15.38c-1.093-.81-1.376-2.348-.606-3.4a2.548 2.548 0 0 1 2.023-1.012c.526 0 1.052.162 1.457.486l18.051 13.113.243.163.243-.163 18.172-13.315c.446-.283.932-.446 1.457-.446zm0-.404c-.566 0-1.174.161-1.659.526L42.402 39.046 24.311 25.892c-.485-.364-1.093-.526-1.7-.526-.89 0-1.78.405-2.347 1.174-.891 1.255-.526 3.036.729 3.967l21.41 15.583 21.532-15.704a2.882 2.882 0 0 0 .647-3.966 2.77 2.77 0 0 0-2.308-1.216z"/></g></svg><svg width="92.93" height="92.93" viewBox="-4 -4 92.93 92.93" id="twitter-icon" y="92.93" xmlns="http://www.w3.org/2000/svg"><path fill="#5490CC" d="M42.466 82.932C20.153 82.932 2 64.779 2 42.466S20.153 2 42.466 2s40.466 18.153 40.466 40.466-18.153 40.466-40.466 40.466z"/><path fill="#FFF" d="M42.466 4c21.21 0 38.466 17.256 38.466 38.466S63.676 80.932 42.466 80.932 4 63.676 4 42.466 21.256 4 42.466 4m0-4C19.013 0 0 19.013 0 42.466s19.013 42.466 42.466 42.466 42.466-19.013 42.466-42.466S65.919 0 42.466 0z"/><g><path fill="#FFF" d="M69.924 26.312a22.565 22.565 0 0 1-6.472 1.767 11.26 11.26 0 0 0 4.954-6.209 22.646 22.646 0 0 1-7.153 2.724 11.276 11.276 0 0 0-8.225-3.544c-6.223 0-11.267 5.024-11.267 11.222 0 .88.1 1.736.292 2.557-9.364-.467-17.666-4.936-23.223-11.725a11.132 11.132 0 0 0-1.525 5.642c0 3.894 1.989 7.328 5.013 9.34a11.261 11.261 0 0 1-5.104-1.403l-.001.141c0 5.437 3.884 9.973 9.038 11.004a11.35 11.35 0 0 1-5.089.193 11.273 11.273 0 0 0 10.524 7.793 22.657 22.657 0 0 1-13.991 4.804c-.91 0-1.807-.053-2.688-.157a31.982 31.982 0 0 0 17.271 5.042c20.723 0 32.055-17.1 32.055-31.929 0-.487-.01-.971-.032-1.452a22.854 22.854 0 0 0 5.623-5.81z"/></g></svg></svg>