<?xml version="1.0" encoding="utf-8"?>
<!-- Generator: Adobe Illustrator 16.0.0, SVG Export Plug-In . SVG Version: 6.00 Build 0)  -->
<!DOCTYPE svg PUBLIC "-//W3C//DTD SVG 1.1//EN" "http://www.w3.org/Graphics/SVG/1.1/DTD/svg11.dtd">
<svg version="1.1" id="Layer_1" xmlns="http://www.w3.org/2000/svg" xmlns:xlink="http://www.w3.org/1999/xlink" x="0px" y="0px"
	 width="84.932px" height="84.932px" viewBox="0 0 84.932 84.932" enable-background="new 0 0 84.932 84.932" xml:space="preserve">
<g>
	<path fill="#5490CC" d="M42.466,82.932C20.153,82.932,2,64.779,2,42.466S20.153,2,42.466,2s40.466,18.153,40.466,40.466
		S64.779,82.932,42.466,82.932z"/>
	<path id="facebook" fill="#FFFFFF" d="M42.466,4c21.21,0,38.466,17.256,38.466,38.466S63.676,80.932,42.466,80.932S4,63.676,4,42.466
		S21.256,4,42.466,4 M42.466,0C19.013,0,0,19.013,0,42.466s19.013,42.466,42.466,42.466s42.466-19.013,42.466-42.466
		S65.919,0,42.466,0L42.466,0z"/>
</g>
<g>
	<path id="facebook" fill="#FFFFFF" d="M46.117,66.049V44.534h7.222l1.081-8.385h-8.303v-5.354c0-2.428,0.675-4.082,4.155-4.082l4.44-0.002v-7.499
		c-0.769-0.103-3.403-0.331-6.47-0.331c-6.402,0-10.784,3.907-10.784,11.083v6.184h-7.241v8.385h7.241v21.515H46.117"/>
</g>
</svg>
