<?xml version="1.0" encoding="utf-8"?>
<!-- Generator: Adobe Illustrator 16.0.0, SVG Export Plug-In . SVG Version: 6.00 Build 0)  -->
<!DOCTYPE svg PUBLIC "-//W3C//DTD SVG 1.1//EN" "http://www.w3.org/Graphics/SVG/1.1/DTD/svg11.dtd">
<svg version="1.1" id="Layer_1" xmlns="http://www.w3.org/2000/svg" xmlns:xlink="http://www.w3.org/1999/xlink" x="0px" y="0px"
	 width="84.932px" height="84.932px" viewBox="0 0 84.932 84.932" enable-background="new 0 0 84.932 84.932" xml:space="preserve">
<g>
	<path fill="#5490CC" d="M42.466,82.932C20.153,82.932,2,64.779,2,42.466S20.153,2,42.466,2s40.466,18.153,40.466,40.466
		S64.779,82.932,42.466,82.932z"/>
	<path id="mail" fill="#FFFFFF" d="M42.466,4c21.21,0,38.466,17.256,38.466,38.466S63.676,80.932,42.466,80.932S4,63.676,4,42.466
		S21.256,4,42.466,4 M42.466,0C19.013,0,0,19.013,0,42.466s19.013,42.466,42.466,42.466s42.466-19.013,42.466-42.466
		S65.919,0,42.466,0L42.466,0z"/>
</g>
<g>
	<path fill="#5490CC" stroke="#FFFFFF" stroke-width="4" stroke-miterlimit="10" d="M62.274,59.688H22.61
		c-1.537,0-2.833-1.255-2.833-2.833V28.199c0-1.538,1.255-2.833,2.833-2.833h39.664c1.538,0,2.834,1.255,2.834,2.833v28.655
		C65.108,58.433,63.854,59.688,62.274,59.688L62.274,59.688z"/>
	<path id="mail" fill="#FFFFFF" d="M22.61,59.688c-1.578,0-2.833-1.255-2.833-2.833V28.159c0-1.579,1.255-1.862,2.833-1.862
		c1.579,0,2.833,0.323,2.833,1.862v31.529H22.61L22.61,59.688z"/>
	<path fill="#5490CC" d="M22.61,26.702c2.024,0,2.429,0.607,2.429,1.457v31.124H22.61c-1.335,0-2.428-1.093-2.428-2.428V28.159
		C20.183,27.268,20.587,26.702,22.61,26.702L22.61,26.702z M22.61,26.297c-1.578,0-2.833,0.323-2.833,1.862v28.695
		c0,1.579,1.255,2.833,2.833,2.833h2.833V28.159C25.443,26.58,24.189,26.297,22.61,26.297L22.61,26.297L22.61,26.297z"/>
	<path id="mail" fill="#FFFFFF" d="M62.274,59.688h-2.833v-31.61c0-1.579,1.255-1.781,2.833-1.781c1.579,0,2.834,0.202,2.834,1.781v28.817
		C65.108,58.433,63.854,59.688,62.274,59.688L62.274,59.688z"/>
	<path fill="#5490CC" d="M62.274,26.702c1.821,0,2.429,0.364,2.429,1.376v28.817c0,1.335-1.093,2.428-2.429,2.428h-2.428V28.078
		C59.847,27.025,60.453,26.702,62.274,26.702L62.274,26.702z M62.274,26.297c-1.578,0-2.833,0.202-2.833,1.781v31.65h2.833
		c1.579,0,2.834-1.254,2.834-2.833V28.078C65.108,26.499,63.854,26.297,62.274,26.297L62.274,26.297L62.274,26.297z"/>
	<path id="mail" fill="#FFFFFF" d="M42.402,46.047l-21.41-15.542c-1.255-0.931-1.619-2.712-0.688-3.967c0.931-1.254,2.752-1.538,4.048-0.606
		l18.091,13.153l18.214-13.315c1.254-0.931,3.035-0.647,3.966,0.647c0.932,1.255,0.647,3.036-0.647,3.966L42.402,46.047
		L42.402,46.047z"/>
	<path fill="#5490CC" d="M62.274,25.608L62.274,25.608c0.77,0,1.498,0.364,1.983,1.012c0.769,1.093,0.526,2.591-0.526,3.4
		L42.402,45.562l-21.168-15.38c-1.093-0.81-1.376-2.348-0.606-3.4c0.445-0.607,1.214-1.012,2.023-1.012
		c0.526,0,1.052,0.162,1.457,0.486l18.051,13.113l0.243,0.163l0.243-0.163l18.172-13.315C61.263,25.771,61.749,25.608,62.274,25.608
		L62.274,25.608z M62.274,25.204c-0.566,0-1.174,0.161-1.659,0.526L42.402,39.046L24.311,25.892c-0.485-0.364-1.093-0.526-1.7-0.526
		c-0.89,0-1.78,0.405-2.347,1.174c-0.891,1.255-0.526,3.036,0.729,3.967l21.41,15.583l21.532-15.704
		c1.255-0.931,1.537-2.671,0.647-3.966C64.015,25.608,63.165,25.204,62.274,25.204L62.274,25.204L62.274,25.204z"/>
</g>
</svg>
