<?xml version="1.0" encoding="utf-8"?>
<!-- Generator: Adobe Illustrator 16.0.0, SVG Export Plug-In . SVG Version: 6.00 Build 0)  -->
<!DOCTYPE svg PUBLIC "-//W3C//DTD SVG 1.1//EN" "http://www.w3.org/Graphics/SVG/1.1/DTD/svg11.dtd">
<svg version="1.1" id="Layer_1" xmlns="http://www.w3.org/2000/svg" xmlns:xlink="http://www.w3.org/1999/xlink" x="0px" y="0px"
	 width="84.932px" height="84.932px" viewBox="0 0 84.932 84.932" enable-background="new 0 0 84.932 84.932" xml:space="preserve">
<g>
	<path fill="#5490CC" d="M42.466,82.932C20.153,82.932,2,64.779,2,42.466S20.153,2,42.466,2s40.466,18.153,40.466,40.466
		S64.779,82.932,42.466,82.932z"/>
	<path id="twitter" fill="#FFFFFF" d="M42.466,4c21.21,0,38.466,17.256,38.466,38.466S63.676,80.932,42.466,80.932S4,63.676,4,42.466
		S21.256,4,42.466,4 M42.466,0C19.013,0,0,19.013,0,42.466s19.013,42.466,42.466,42.466s42.466-19.013,42.466-42.466
		S65.919,0,42.466,0L42.466,0z"/>
</g>
<g>
	<path id="twitter" fill="#FFFFFF" d="M69.924,26.312c-2.021,0.893-4.191,1.496-6.472,1.767c2.327-1.389,4.113-3.588,4.954-6.209
		c-2.177,1.286-4.589,2.22-7.153,2.724c-2.056-2.181-4.984-3.544-8.225-3.544c-6.223,0-11.267,5.024-11.267,11.222
		c0,0.88,0.1,1.736,0.292,2.557c-9.364-0.467-17.666-4.936-23.223-11.725c-0.97,1.657-1.525,3.585-1.525,5.642
		c0,3.894,1.989,7.328,5.013,9.34c-1.848-0.058-3.584-0.563-5.104-1.403c-0.001,0.047-0.001,0.094-0.001,0.141
		c0,5.437,3.884,9.973,9.038,11.004c-0.946,0.256-1.941,0.394-2.969,0.394c-0.727,0-1.432-0.07-2.12-0.201
		c1.435,4.458,5.595,7.703,10.524,7.793c-3.854,3.01-8.714,4.804-13.991,4.804c-0.91,0-1.807-0.053-2.688-0.157
		c4.986,3.184,10.908,5.042,17.271,5.042c20.723,0,32.055-17.1,32.055-31.929c0-0.487-0.01-0.971-0.032-1.452
		C66.503,30.539,68.413,28.563,69.924,26.312L69.924,26.312z"/>
</g>
</svg>
